/* XPM */
static char *result[] = {
/* columns rows colors chars-per-pixel */
"128 128 72 1 ",
"  c #010000",
". c gray12",
"X c #2B230F",
"o c #3B2F17",
"O c #232323",
"+ c #2F2F2F",
"@ c gray20",
"# c #373737",
"$ c gray23",
"% c #570000",
"& c #630000",
"* c #6F0000",
"= c #770000",
"- c #43331B",
"; c #4B3B1B",
": c #573F1F",
"> c #5F4323",
", c #6F4B27",
"< c #774F2B",
"1 c #434343",
"2 c #4B4B4B",
"3 c gray34",
"4 c #5B5B5B",
"5 c #676767",
"6 c gray45",
"7 c #7B7B7B",
"8 c gray50",
"9 c #830000",
"0 c #8F0000",
"q c #9B0000",
"w c #9F0000",
"e c #A70000",
"r c #B30000",
"t c #BF0000",
"y c #CB0000",
"u c #D70000",
"i c #DF0000",
"p c #E30000",
"a c #EF0000",
"s c red",
"d c #9F4F00",
"f c #B75700",
"g c #83532F",
"h c #8B5B33",
"j c #935F37",
"k c #9F633B",
"l c #A3673F",
"z c #CF6300",
"x c #E76F00",
"c c #FF7B00",
"v c #AB6B43",
"b c #B77347",
"n c #BF7B4B",
"m c #F35353",
"M c #CB7F4F",
"N c #FF8B23",
"B c #D38353",
"V c #DF8B57",
"C c #FF9B43",
"Z c #EB8F5B",
"A c #FFAB5F",
"S c #FF9F63",
"D c #FFA773",
"F c gray56",
"G c #9B9B9B",
"H c gray67",
"J c #B7B7B7",
"K c #BBBBBB",
"L c LightGray",
"P c #DFDFDF",
"I c #EFEFEF",
"U c None",
/* pixels */
"UUUUUUUUUUUUUUUUUUUUUUUUUUUUUUUUUUUUUUUUUUUUUUUUUUUUUUUUUUUUUUUUUUUUUUUUUUUUUUUUUUUUUUUUUUUUUUUUUUUUUUUUUUUUUUUUUUUUUUUUUUUUUUUU",
"UUUUUUUUUUUUUUUUUUUUUUUUUUUUUUUUUUUUUUUUUUUUUUUUUUUUUUUUUUUUUUUUUUUUUUUUUUUUUUUUUUUUUUUUUUUUUUUUUUUUUUUUUUUUUUUUUUUUUUUUUUUUUUUU",
"UUUUUUUUUUUUUUUUUUUUUUUUUUUUUUUUUUUUUUUUUUUUUUUUUUUUUUUUUUUUUUUUUUUUUUUUUUUUUUUUUUUUUUUUUUUUUUUUUUUUUUUUUUUUUUUUUUUUUUUUUUUUUUUU",
"UUUUUUUUUUUUUUUUUUUUUUUUUUUUUUUUUUUUUUUUUUUUUUUUUUUUUUUUUUUUUUUUUUUUUUUUUUUUUUUUUUUUUUUUUUUUUUUUUUUUUUUUUUUUUUUUUUUUUUUUUUUUUUUU",
"UUUUUUUUUUUUUUUUUUUUUUUUUUUUUUUUUUUUUUUUUUUUUUUUUUUUUUUUUUUUUUUUUUUUUUUUUUUUUUUUUUUUUUUUUUUUUUUUUUUUUUUUUUUUUUUUUUUUUUUUUUUUUUUU",
"UUUUUUUUUUUUUUUUUUUUUUUUUUUUUUUUUUUUUUUUUUUUUUUUUUUUUUUUUUUUUUUUUUUUUUUUUUUUUUUUUUUUUUUUUUUUUUUUUUUUUUUUUUUUUUUUUUUUUUUUUUUUUUUU",
"UUUUUUUUUUUUUUUUUUUUUUUUUUUUUUUUUUUUUUUUUUUUUUUUUUUUUUUUUUUUUUUUUUUUUUUUUUUUUUUUUUUUUUUUUUUUUUUUUUUUUUUUUUUUUUUUUUUUUUUUUUUUUUUU",
"UUUUUUUUUUUUUUUUUUUUUUUUUUUUUUUUUUUUUUUUUUUUUUUUUUUUUUUUUUUUUUUUUUUUUUUUUUUUUUUUUUUUUUUUUUUUUUUUUUUUUUUUUUUUUUUUUUUUUUUUUUUUUUUU",
"UUUUUUUUUUUUUUUUUUUUUUUUUUUUUUUUUUUUUUUUUUUUUUUUUUUUUUUUUUUUUUUUUUUUUUUUUUUUUUUUUUUUUUUUUUUUUUUUUUUUUUUUUUUUUUUUUUUUUUUUUUUUUUUU",
"UUUUUUUUUUUUUUUUUUUUUUUUUUUUUUUUUUUUUUUUUUUUUUUUUUUUUUUUUUUUUUUUUUUUUUUUUUUUUUUUUUUUUUUUUUUUUUUUUUUUUUUUUUUUUUUUUUUUUUUUUUUUUUUU",
"UUUUUUUUUUUUUUUUUUUUUUUUUUUUUUUUUUUUUUUUUUUUUUUUUUUUUUUUUUUUUUUUUUUUUUUUUUUUUUUUUUUUUUUUUUUUUUUUUUUUUUUUUUUUUUUUUUUUUUUUUUUUUUUU",
"UUUUUUUUUUUUUUUUUUUUUUUUUUUUUUUUUUUUUUUUUUUUUUUUUUUUUUUUUUUUUUUUUUUUUUUUUUUUUUUUUUUUUUUUUUUUUUUUUUUUUUUUUUUUUUUUUUUUUUUUUUUUUUUU",
"UUUUUUUUUUUUUUUUUUUUUUUUUUUUUUUUUUUUUUUUUUUUUUUUUUUUUUUUUUUUUUUUUUUUUUUUUUUUUUUUUUUUUUUUUUUUUUUUUUUUUUUUUUUUUUUUUUUUUUUUUUUUUUUU",
"UUUUUUUUUUUUUUUUUUUUUUUUUUUUUUUUUUUUUUUUUUUUUUUUUUUUUUUUUUUUUUUUUUUUUUUUUUUUUUUUUUUUUUUUUUUUUUUUUUUUUUUUUUUUUUUUUUUUUUUUUUUUUUUU",
"UUUUUUUUUUUUUUUUUUUUUUUUUUUUUUUUUUUUUUUUUUUUUUUUUUUUUUUUUUUUUUUUUUUUUUUUUUUUUUUUUUUUUUUUUUUUUUUUUUUUUUUUUUUUUUUUUUUUUUUUUUUUUUUU",
"UUUUUUUUUUUUUUUUUUUUUUUUUUUUUUUUUUUUUUUUUUUUUUUUUUUUUUUUUUUUUUUUUUUUUUUUUUUUUUUUUUUUUUUUUUUUUUUUUUUUUUUUUUUUUUUUUUUUUUUUUUUUUUUU",
"UUUUUUUUUUUUUUUUUUUUUUUUUUUUUUUUUUUUUUUUUUUUUUUUUUUUUUUUUUUUUUUUUUUUUUUUUUUUUUUUUUUUUUUUUUUUUUUUUUUUUUUUUUUUUUUUUUUUUUUUUUUUUUUU",
"UUUUUUUUUUUUUUUUUUUUUUUUUUUUUUUUUUUUUUUUUUUUUUUUUUUUUUUUUUUUUUUUUUUUUUUUUUUUUUUUUUUUUUUUUUUUUUUUUUUUUUUUUUUUUUUUUUUUUUUUUUUUUUUU",
"UUUUUUUUUUUUUUUUUUUUUUUUUUUUUUUUUUUUUUUUUUUUUUUUUUUUUUUUUUUUUUUUUUUUUUUUUUUUUUUUUUUUUUUUUUUUUUUUUUUUUUUUUUUUUUUUUUUUUUUUUUUUUUUU",
"UUUUUUUUUUUUUUUUUUUUUUUUUUUUUUUUUUUUUUUUUUUUUUUUUUUUUUUUUUUUUUUUUUUUUUUUUUUUUUUUUUUUUUUUUUUUUUUUUUUUUUUUUUUUUUUUUUUUUUUUUUUUUUUU",
"UUUUUUUUUUUUUUUUUUUUUUUUUUUUUUUUUUUUUUUUUUUUUUUUUUUUUUUUUUUUUUUUUUUUUUUUUUUUUUUUUUUUUUUUUUUUUUUUUUUUUUUUUUUUUUUUUUUUUUUUUUUUUUUU",
"UUUUUUUUUUUUUUUUUUUUUUUUUUUUUUUUUUUUUUUUUUUUUUUUUUUUUUUUUUUUUUUUUUUUUUUUUUUUUUUUUUUUUUUUUUUUUUUUUUUUUUUUUUUUUUUUUUUUUUUUUUUUUUUU",
"UUUUUUUUUUUUUUUUUUUUUUUUUUUUUUUUUUUUUUUUUUUUUUUUUUUUUUUUUUUUUUUUUUUUUUUUUUUUUUUUUUUUUUUUUUUUUUUUUUUUUUUUUUUUUUUUUUUUUUUUUUUUUUUU",
"UUUUUUUUUUUUUUUUUUUUUUUUUUUUUUUUUUUUUUUUUUUUUUUUUUUUUUUUUUUUUUUUUUUUUUUUUUUUUUUUUUUUUUUUUUUUUUUUUUUUUUUUUUUUUUUUUUUUUUUUUUUUUUUU",
"UUUUUUUUUUUUUUUUUUUUUUUUUUUUUUUUUUUUUUUUUUUUUUUUUUUUUUUUUUUUUUUUUUUUUUUUUUUUUUUUUUUUUUUUUUUUUUUUUUUUUUUUUUUUUUUUUUUUUUUUUUUUUUUU",
"UUUUUUUUUUUUUUUUUUUUUUUUUUUUUUUUUUUUUUUUUUUUUUUUUUUUUUUUUUUUUUUUUUUUUUUUUUUUUUUUUUUUUUUUUUUUUUUUUUUUUUUUUUUUUUUUUUUUUUUUUUUUUUUU",
"UUUUUUUUUUUUUUUUUUUUUUUUUUUUUUUUUUUUUUUUUUUUUUUUUUUUUUUUUUUUUUUUUUUUUUUUUUUUUUUUUUUUUUUUUUUUUUUUUUUUUUUUUUUUUUUUUUUUUUUUUUUUUUUU",
"UUUUUUUUUUUUUUUUUUUUUUUUUUUUUUUUUUUUUUUUUUUUUUUUUUUUUUUUUUUUUUUUUUUUUUUUUUUUUUUUUUUUUUUUUUUUUUUUUUUUUUUUUUUUUUUUUUUUUUUUUUUUUUUU",
"UUUUUUUUUUUUUUUUUUUUUUUUUUUUUUUUUUUUUUUUUUUUUUUUUUUUUUUUUUUUUUUUUUUUUUUUUUUUUUUUUUUUUUUUUUUUUUUUUUUUUUUUUUUUUUUUUUUUUUUUUUUUUUUU",
"UUUUUUUUUUUUUUUUUUUUUUUUUUUUUUUUUUUUUUUUUUUUUUUUUUUUUUUUUUUUUUUUUUUUUUUUUUUUUUUUUUUUUUUUUUUUUUUUUUUUUUUUUUUUUUUUUUUUUUUUUUUUUUUU",
"UUUUUUUUUUUUUUUUUUUUUUUUUUUUUUUUUUUUUUUUUUUUUUUUUUUUUUUUUUUUUUUUUUUUUUUUUUUUUUUUUUUUUUUUUUUUUUUUUUUUUUUUUUUUUUUUUUUUUUUUUUUUUUUU",
"UUUUUUUUUUUUUUUUUUUUUUUUUUUUUUUUUUUUUUUUUUUUUUUUUUUUUUUUUUUUUUUUUUUUUUUUUUUUUUUUUUUUUUUUUUUUUUUUUUUUUUUUUUUUUUUUUUUUUUUUUUUUUUUU",
"UUUUUUUUUUUUUUUUUUUUUUUUUUUUUUUUUUUUUUUUUUUUUUUUUUUUUUUUUUUUUUUUUUUUUUUUUUUUUUUUUUUUUUUUUUUUUUUUUUUUUUUUUUUUUUUUUUUUUUUUUUUUUUUU",
"UUUUUUUUUUUUUUUUUUUUUUUUUUUUUUUUUUUUUUUUUUUUUUUUUUUUUUUUUUUUUUUUUUUUUUUUUUUUUUUUUUUUUUUUUUUUUUUUUUUUUUUUUUUUUUUUUUUUUUUUUUUUUUUU",
"UUUUUUUUUUUUUUUUUUUUUUUUUUUUUUUUUUUUUUUUUUUUUUUUUUUUUUUUUUUUUUUUUUUUUUUUUUUUUUUUUUUUUUUUUUUUUUUUUUUUUUUUUUUUUUUUUUUUUUUUUUUUUUUU",
"UUUUUUUUUUUUUUUUUUUUUUUUUUUUUUUUUUUUUUUUUUUUUUUUUUUUUUUUUUUUUUUUUUUUUUUUUUUUUUUUUUUUUUUUUUUUUUUUUUUUUUUUUUUUUUUUUUUUUUUUUUUUUUUU",
"UUUUUUUUUUUUUUUUUUUUUUUUUUUUUUUUUUUUUUUUUUUUUUUUUUUUUUUUUUUUUUUUUUUUUUUUUUUUUUUUUUUUUUUUUUUUUUUUUUUUUUUUUUUUUUUUUUUUUUUUUUUUUUUU",
"UUUUUUUUUUUUUUUUUUUUUUUUUUUUUUUUUUUUUUUUUUUUUUUUUUUUUUUUUUUUUUUUUUUUUUUUUUUUUUUUUUUUUUUUUUUUUUUUUUUUUUUUUUUUUUUUUUUUUUUUUUUUUUUU",
"UUUUUUUUUUUUUUUUUUUUUUUUUUUUUUUUUUUUUUUUUUUUUUUUUUUUUUUUUUUUUUUUUUUUUUUUUUUUUUUUUUUUUUUUUUUUUUUUUUUUUUUUUUUUUUUUUUUUUUUUUUUUUUUU",
"UUUUUUUUUUUUUUUUUUUUUUUUUUUUUUUUUUUUUUUUUUUUUUUUUUUUUUUUUUUUUUUUUUUUUUUUUUUUUUUUUUUUUUUUUUUUUUUUUUUUUUUUUUUUUUUUUUUUUUUUUUUUUUUU",
"UUUUUUUUUUUUUUUUUUUUUUUUUUUUUUUUUUUUUUUUUUUUUUUUUUUUUUUUUUUUUUUUUUUUUUUUUUUUUUUUUUUUUUUUUUUUUUUUUUUUUUUUUUUUUUUUUUUUUUUUUUUUUUUU",
"UUUUUUUUUUUUUUUUUUUUUUUUUUUUUUUUUUUUUUUUUUUUUUUUUUUUUUUUUUUUUUUUUUUUUUUUUUUUUUUUUUUUUUUUUUUUUUUUUUUUUUUUUUUUUUUUUUUUUUUUUUUUUUUU",
"UUUUUUUUUUUUUUUUUUUUUUUUUUUUUUUUUUUUUUUUUUUUUUUUUUUUUUUUUUUUUUUUUUUUUUUUUUUUUUUUUUUUUUUUUUUUUUUUUUUUUUUUUUUUUUUUUUUUUUUUUUUUUUUU",
"UUUUUUUUUUUUUUUUUUUUUUUUUUUUUUUUUUUUUUUUUUUUUUUUUUUUUUUUUUUUUUUUUUUUUUUUUUUUUUUUUUUUUUUUUUUUUUUUUUUUUUUUUUUUUUUUUUUUUUUUUUUUUUUU",
"UUUUUUUUUUUUUUUUUUUUUUUUUUUUUUUUUUUUUUUUUUUUUUUUUUUUUUUUUUUUUUUUUUUUUUUUUUUUUUUUUUUUUUUUUUUUUUUUUUUUUUUUUUUUUUUUUUUUUUUUUUUUUUUU",
"UUUUUUUUUUUUUUUUUUUUUUUUUUUUUUUUUUUUUUUUUUUUUUUUUUUUUUUUUUUUUUUUUUUUUUUUUUUUUUUUUUUUUUUUUUUUUUUUUUUUUUUUUUUUUUUUUUUUUUUUUUUUUUUU",
"UUUUUUUUUUUUUUUUUUUUUUUUUUUUUUUUUUUUUUUUUUUUUUUUUUUUUUUUUUUUUUUUUUUUUUUUUUUUUUUUUUUUUUUUUUUUUUUUUUUUUUUUUUUUUUUUUUUUUUUUUUUUUUUU",
"UUUUUUUUUUUUUUUUUUUUUUUUUUUUUUUUUUUUUUUUUUUUUUUUUUUUUUUUUUUUUUUUUUUUUUUUUUUUUUUUUUUUUUUUUUUUUUUUUUUUUUUUUUUUUUUUUUUUUUUUUUUUUUUU",
"UUUUUUUUUUUUUUUUUUUUUUUUUUUUUUUUUUUUUUUUUUUUUUUUUUUUUUUUUUUUUUUUUUUUUUUUUUUUUUUUUUUUUUUUUUUUUUUUUUUUUUUUUUUUUUUUUUUUUUUUUUUUUUUU",
"UUUUUUUUUUUUUUUUUUUUUUUUUUUUUUUUUUUUUUUUUUUUUUUUUUUUUUUUUUUUUUUUUUUUUUUUUUUUUUUUUUUUUUUUUUUUUUUUUUUUUUUUUUUUUUUUUUUUUUUUUUUUUUUU",
"UUUUUUUUUUUUUUUUUUUUUUUUUUUUUUUUUUUUUUUUUUUUUUUUUUUUUUUUUUUUUUUUUUUUUUUUUUUUUUUUUUUUUUUUUUUUUUUUUUUUUUUUUUUUUUUUUUUUUUUUUUUUUUUU",
"UUUUUUUUUUUUUUUUUUUUUUUUUUUUUUUUUUUUUUUUUUUUUUUUUUUUUUUUUUUUUUUUUUUUUUUUUUUUUUUUUUUUUUUUUUUUUUUUUUUUUUUUUUUUUUUUUUUUUUUUUUUUUUUU",
"UUUUUUUUUUUUUUUUUUUUUUUUUUUUUUUUUUUUUUUUUUUUUUUUUUUUUUUUUUUUUUUUUUUUUUUUUUUUUUUUUUUUUUUUUUUUUUUUUUUUUUUUUUUUUUUUUUUUUUUUUUUUUUUU",
"UUUUUUUUUUUUUUUUUUUUUUUUUUUUUUUUUUUUUUUUUUUUUUUUUUUUUUUUUUUUUUUUUUUUUUUUUUUUUUUUUUUUUUUUUUUUUUUUUUUUUUUUUUUUUUUUUUUUUUUUUUUUUUUU",
"UUUUUUUUUUUUUUUUUUUUUUUUUUUUUUUUUUUUUUUUUUUUUUUUUUUUUUUUUUUUUUUUUUUUUUUUUUUUUUUUUUUUUUUUUUUUUUUUUUUUUUUUUUUUUUUUUUUUUUUUUUUUUUUU",
"UUUUUUUUUUUUUUUUUUUUUUUUUUUUUUUUUUUUUUUUUUUUUUUUUUUUUUUUUUUUUUUUUUUUUUUUUUUUUUUUUUUUUUUUUUUUUUUUUUUUUUUUUUUUUUUUUUUUUUUUUUUUUUUU",
"UUUUUUUUUUUUUUUUUUUUUUUUUUUUUUUUUUUUUUUUUUUUUUUUUUUUUUUUUUUUUUUUUUUUUUUUUUUUUUUUUUUUUUUUUUUUUUUUUUUUUUUUUUUUUUUUUUUUUUUUUUUUUUUU",
"UUUUUUUUUUUUUUUUUUUUUUUUUUUUUUUUUUUUUUUUUUUUUUUUUUUUUUUUUUUUUUUUUUUUUUUUUUUUUUUUUUUUUUUUUUUUUUUUUUUUUUUUUUUUUUUUUUUUUUUUUUUUUUUU",
"UUUUUUUUUUUUUUUUUUUUUUUUUUUUUUUUUUUUUUUUUUUUUUUUUUUUUUUUUUUUUUUUUUUUUUUUUUUUUUUUUUUUUUUUUUUUUUUUUUUUUUUUUUUUUUUUUUUUUUUUUUUUUUUU",
"UUUUUUUUUUUUUUUUUUUUUUUUUUUUUUUUUUUUUUUUUUUUUUUUUUUUUUUUUUUUUUUUUUUUUUUUUUUUUUUUUUUUUUUUUUUUUUUUUUUUUUUUUUUUUUUUUUUUUUUUUUUUUUUU",
"UUUUUUUUUUUUUUUUUUUUUUUUUUUUUUUUUUUUUUUUUUUUUUUUUUUUUUUUUUUUUUUUUUUUUUUUUUUUUUUUUUUUUUUUUUUUUUUUUUUUUUUUUUUUUUUUUUUUUUUUUUUUUUUU",
"UUUUUUUUUUUUUUUUUUUUUUUUUUUUUUUUUUUUUUUUUUUUUUUUUUUUUUUUUUUUUUUUUUUUUUUUUUUUUUUUUUUUUUUUUUUUUUUUUUUUUUUUUUUUUUUUUUUUUUUUUUUUUUUU",
"UUUUUUUUUUUUUUUUUUUUUUUUUUUUUUUUUUUUUUUUUUUUUUUUUUUUUUUUUUUUUUiUUUUUUUU=UUUUUUUUUUUUUUUUUUUUUUUUUUUUUUUUUUUUUUUUUUUUUUUUUUUUUUUU",
"UUUUUUUUUUUUUUUUUUUUUUUUUUUUUUUUUUUUUUUUUUUUUUUUUUUUUUUUUUUUUUatUUUUUUr0UUUUUUUUUUUUUUUUUUUUUUUUUUUUUUUUUUUUUUUUUUUUUUUUUUUUUUUU",
"UUUUUUUUUUUUUUUUUUUUUUUUUUUUUUUUUUUUUUUUUUUUUUUUUUUUUUUUUUUUUUstUUUUUUtwUUUUUUUUUUUUUUUUUUUUUUUUUUUUUUUUUUUUUUUUUUUUUUUUUUUUUUUU",
"UUUUUUUUUUUUUUUUcxzfUUUUUUUUUUUUUUxxzfUUUUUUUUUUUUUUUUUUUUUUUUmuUUUUUUyrUUUUUUUUUUUUUUcxffUUUUUUUUUUUUUUcxffUUUUUUUUUUUUUUUUUUUU",
"UUUUUUUUUUUUUUUUcxddUUUUUUUUUUUUUUcxddUUUUUUUUUUUUUUUUUUUUUUUUmpUUUUUUyyUUUUUUUUUUUUUUcxddUUUUUUUUUUUUUUxxddUUUUUUUUUUUUUUUUUUUU",
"UUUUUUUUUUUUUUUUcxddUUUUUUUUUUUUUUcxddUUUUUUUUUUUUUUUUUUUUUUUamarUUUUatmeUUUUUUUUUUUUUcxddUUUUUUUUUUUUUUxxddUUUUUUUUUUUUUUUUUUUU",
"UUUUUUUUUUUUUUUUcxddUUUUUUUUUUUUUUxxddUUUUUUUUUUUUUUUUUUUUUUUpmauUUUUmtpeUUUUUUUUUUUUUcxddUUUUUUUUUUUUUUxxddUUUUUUUUUUUUUUUUUUUU",
"UUUUUUUUUUUUUUUUcxddffzzxxxxxzzzffffddUUUUUUUUUUUUUUUUUUUUUUUtyapUUUUmyptUUUUUUUUUUUUUxxddfzxxxccxxxxxxxxxddUUUUUUUUUUUUUUUUUUUU",
"UUUUUUUUUUUUUUUUcxdddddddddddddddddfddUUUUUUUUUUUUUUUUUUUUUUUrtayUUUUmypuUUUUUUUUUUUUUxxdddzzzzzzzzzzzzzxxddUUUUUUUUUUUUUUUUUUUU",
"UUUUUUUUUUUUUUUUcxddddddddddddddddffddUUUUUUUUUUUUUUUUUUUUUUUweyq*UUmttiuUUUUUUUUUUUUUxxdddfzzzzzzzzzzzzxxddUUUUUUUUUUUUUUUUUUUU",
"UUUUUUUUUUUUUUUUcxddUUUUUUUUUUUUUUzfddUUUUUUUUUUUUUUUUUUUUUUU990=&UUyq0teUUUUUUUUUUUUUxxddUUUUUUUUUUUUUUxxddUUUUUUUUUUUUUUUUUUUU",
"UUUUUUUUUUUUUUUUcxddUUUUUUUUUUUUUUxzddUUUUUUUUUUUUUUUUUUUUUUU***PPPH86***UUUUUUUUUUUUUxxddUUUUUUUUUUUUUUxxddUUUUUUUUUUUUUUUUUUUU",
"UUUUUUUUUUUUUUUUcxddUUUUUUUUUUUUUUxxddUUUUUUUUUUUUUUUUUUUUUUU&PPPIKF6214%UUUUUUUUUUUUUxxddUUUUUUUUUUUUUUxxddUUUUUUUUUUUUUUUUUUUU",
"UUUUUUUUUUUUUUUUcxddUUUUUUUUUUUUUUxxddUUUccccccccccccccccccccLPPILG852#$2ccccccccccccccccccccUUUUUUUUUUUxxddUUUUUUUUUUUUUUUUUUUU",
"UUUUUUUUUUUUUUUUcxddUUUUUUUUUdzxcccccccccNCCCCCCCCCCCCCCCCCCLPPIPJF752$#14xxNNNCCCCCCCCCCCCCNcccccccccxzdxddUUUUUUUUUUUUUUUUUUUU",
"UUUUUUUUUUUUUUUUcxddUUUUUUUdxccNNCCCCCCCAAAAAAAAAAAAAAAAAAAALPIILGF6531$13zzxxNNCCAAAAAAAAAAAACCCCCCCNNccxddUUUUUUUUUUUUUUUUUUUU",
"UUUUUUUUUUUUUUUUcxddUUUUUUUxcNCCCCAAAAAAAAAAAAAAAAAAAAAAAAAAAAAAAAAAACCCCCCCCCCCAAAAAAAAAAAAAAAAAAAACCCCNcxdUUUUUUUUUUUUUUUUUUUU",
"UUUUUUUUUUUUUUUUcxddUUUUUUUfcNCCCCAAAAAAAAAAAAAAAAAAAAAAAAAAAAAAAAAAAAAAAAAAAAAAAAAAAAAAAAAAAAAAAAAACCCCNcf,UUUUUUUUUUUUUUUUUUUU",
"UUUUUUUUUUUUUUUUxxddUUUUUUUddzxcNCCCCCCCCCCCCCCCCCCCCCCCCCCCCCCCCCCCCCCCCCCCCCCCCCCCCCCCCCCCCCCCCCCCCNcxzdd,UUUUUUUUUUUUUUUUUUUU",
"UUUUUUUUUUUUUUUUxxddUUUUUUUdddddfzxxxccNNNNNNNNNNNNNNNNNNNNNNNNNNNNNNNNNNNNNNNNNNNNNNNNNNNNNNNNccxxxzfddddd>UUUUUUUUUUUUUUUUUUUU",
"UUUUUUUUUUUUUUUUxxddUUUUUUUUUddddddddddddddddffzzxxxxxxxxxxxxxxxxxxxxxxxxxxxxxxxxxxxxzzffddddddddddddddddh>>UUUUUUUUUUUUUUUUUUUU",
"UUUUUUUUUUUUUUUUxxddUUUUUUUUUUUddddddddddddddddddddddddddddddddddddddddddddddddddddddddddddddddddddddddUgg>>UUUUUUUUUUUUUUUUUUUU",
"UUUUUUUUUUUUUUUUxxddUUUUUUUUUUUUUUxddddddddddddddddddddddddddddddddddddddddddddddddddddddddddddddddUUUUU<<::UUUUUUUUUUUUUUUUUUUU",
"UUUUUUUUUUUUUUUUxxddfffffzzfffffffffddUUUUUUUddddddddddddddddddddddddddddddddddddddddddddd<<<<<<<<<<<<<<<<::UUUUUUUUUUUUUUUUUUUU",
"UUUUUUUUUUUUUUUUxxdddddddddddddddddfddUUUUUUUUUUUUUUUUUUUUUUXXXXXXXXXXXXXXUUUUUUUUUUUU<<:,<<<<<<<<<<<<<<<<::UUUUUUUUUUUUUUUUUUUU",
"UUUUUUUUUUUUUUUUxxddddddddddddddddffddUUUUUUUUUUUUUUUUUUUUUUUooooooooooooUUUUUUUUUUUUU<<:><<<<<<<<<<<<<<<<::UUUUUUUUUUUUUUUUUUUU",
"UUUUUUUUUUUUUUUUxxddUUUUUUUUUUUUUUzfddUUUUUUUUUUUUUUUUUUUUUUUU:>,,>:::;;UUUUUUUUUUUUUU<<::UUUUUUUUUUUUUU<<::UUUUUUUUUUUUUUUUUUUU",
"UUUUUUUUUUUUUUUUxxddUUUUUUUUUUUUUUxzddUUUUUUUUUUUUUUUUUUUUUUUU>,<<<<,>::UUUUUUUUUUUUUU<<::UUUUUUUUUUUUUU<<::UUUUUUUUUUUUUUUUUUUU",
"UUUUUUUUUUUUUUUUxxddUUUUUUUUUUUUUUxxddUUUUUUUUUUUUUUUUUUUUUUUUUU----ooUUUUUUUUUUUUUUUU<<::UUUUUUUUUUUUUU<<::UUUUUUUUUUUUUUUUUUUU",
"UUUUUUUUUUUUUUUUxxddUUUUUUUUUUUUUUxxddUUUUUUUUUUUUUUUUUUUUUUUUUU,,>>o-UUUUUUUUUUUUUUUU<<::UUUUUUUUUUUUUU<<::UUUUUUUUUUUUUUUUUUUU",
"UUUUUUUUUUUUUUUUxxddUUUUUUUUUUUUUUxxddUUUUUUUUUUUUUUUUUUUUUUUUUU<,>>o-UUUUUUUUUUUUUUUU<<::UUUUUUUUUUUUUU<<::UUUUUUUUUUUUUUUUUUUU",
"UUUUUUUUUUUUUUUUxxddUUUUUUUUUUUUUUxxddUUUUUUUUUUUUUUUUUUUUUUUUUUg,>>o-UUUUUUUUUUUUUUUU<<::UUUUUUUUUUUUUU<<::UUUUUUUUUUUUUUUUUUUU",
"UUUUUUUUUUUUUUUUxxddUUUUUUUUUUUUUUxxddUUUUUUUUUUUUUUUUUUUUUUUUUUh<>>o-UUUUUUUUUUUUUUUU<<::UUUUUUUUUUUUUU<<::UUUUUUUUUUUUUUUUUUUU",
"UUUUUUUUUUUUUUUUxxzCAACCCCCCCCCCCCNNNxxxxxzzzzzzzzUUUUUUUUUUUUUUhg>>o-UUUUzzzfffffdjjhhhhhhjjjkkjjhhhhhhg<::UUUUUUUUUUUUUUUUUUUU",
"UUUUUUUUUUUUUUUUxxCCNNNNNNNNNNCANxzzzzfffffffffffffUUUUUUUUUUUUUjj>>o-UUUzzzzzzzzzfffffjjhhjlvjh<<<<<<<<<<::UUUUUUUUUUUUUUUUUUUU",
"UUUUUUUUUUUUUUUUxxNNNNxxxxxxzzzzffdddddddddddddddddUUUUUUUUUUUUUkk>>o-UUUxxxzzzzzzzzzzzfffjjj<g<<<<<<<,,,>::UUUUUUUUUUUUUUUUUUUU",
"UUUUUUUUUUUUUUUUxxxzzzzzzzzzzzfddddddddddddddddddd,UUUUUUUUUUUUUll,>o-UUUzfffffdddddddddddd<,,,<<<<<,,,,::::UUUUUUUUUUUUUUUUUUUU",
"UUUUUUUUUUUUUUUUxxxxxxxxxxxxxzzdd,,,,,,,>>>>>>>>,,,UUUUUUUUUUUUUll,>o-UUUxzzfffdddddddddddddd,,,,,,,,,,,>>>:UUUUUUUUUUUUUUUUUUUU",
"UUUUUUUUUUUUUUUUxxzzzzzzzxxxzzzd,,,>>>>>>>>>>>>>>>>UUUUUUUUUUUUUll,,--UUUxzzfddhggggggggghddd,,,,,,,,,,,>>>:UUUUUUUUUUUUUUUUUUUU",
"UUUUUUUUUUUUUUUUxxddUUUUUUUUUzzd,Ugg::UUUUUUUUUgg>>UUUUUUUUUUUUUll<<--UUUxzddUUUUUUUUUfd,,Udd,,UUUUUUUUUdh>:UUUUUUUUUUUUUUUUUUUU",
"UUUUUUUUUUUUUUUUxzddUUUUUUUUUzf,,Ug<::UUUUUUUUU<g>>UUUUUUUUUUUUUll<<;-UUUxzddUUUUUUUUUff,,Udd,,UUUUUUUUUdh>:UUUUUUUUUUUUUUUUUUUU",
"UUUUUUUUUUUUUUUUxzd,UUUUUUUUUzf,,U<<::UUUUUUUUU<<::UUUUUUUUUUUUUvv<<;-UUUxzddUUUUUUUUUff,,Udd,,UUUUUUUUUhh>:UUUUUUUUUUUUUUUUUUUU",
"UUUUUUUUUUUUUUUUxzd,UUUUUUUUUzf,>U<,::UUUUUUUUU<<>:UUUUUUUUUUUUUbb<<;;UUUzzddUUUUUUUUUdd,,Udd,,UUUUUUUUUhg>:UUUUUUUUUUUUUUUUUUUU",
"UUUUUUUUUUUUUUUUxz,>UUUUUUUUUzf,>U<,::UUUUUUUUU<<::UUUUUUUUUUUUUbb<<;;UUUzzddUUUUUUUUUdd,,Udd,,UUUUUUUUUhg>:UUUUUUUUUUUUUUUUUUUU",
"UUUUUUUUUUUUUUUUxf,>UUUUUUUUUzf,>U<,::UUUUUUUUU<<>:UUUUUUUUUUUUUnb<<;;UUUzzddUUUUUUUUUdd<,Udd,>UUUUUUUUUgg>:UUUUUUUUUUUUUUUUUUUU",
"UUUUUUUUUUUUUUUUxf,:UUUUUUUUUff,>U<,::UUUUUUUUU<<>:UUUUUUUUUUUUUnn<<::UUUzzddUUUUUUUUUddg>Udd,,UUUUUUUUUgg,:UUUUUUUUUUUUUUUUUUUU",
"UUUUUUUUUUUUUUUUxf,:UUUUUUUUUff,>U<>::UUUUUUUUU<<>:UUUUUUUUUUUUUMn<<::UUUzfddUUUUUUUUUddg>Udd,>UUUUUUUUUgg,:UUUUUUUUUUUUUUUUUUUU",
"UUUUUUUUUUUUUUUxxd>:UUUUUUUUUfd,><<>::UUUUUUUUU<<>:UUUUUUUUUUUUUMn<<::UUUzfddUUUUUUUUUddg>>dd,>UUUUUUUUUgg,::UUUUUUUUUUUUUUUUUUU",
"UUUUUUUUUUUUUUUxxd>:UUUUUUUUUfd,><<>:UUUUUUUUUU<<>::UUUUUUUUUUUUMM<<::UUxxfddUUUUUUUUUUdg>>dd,>UUUUUUUUUgg,::UUUUUUUUUUUUUUUUUUU",
"UUUUUUUUUUUUUUUxzddxccccxxxzzfd,>>>>,,>>>:::::::>>::UUUUUUUUUUUZMM<<:::Uxxddfzzzzzfdddddddddd,>>>>>>>>>>>,<::UUUUUUUUUUUUUUUUUUU",
"UUUUUUUUUUUUUUUxzddzzzxxxxzzzfd,>>::::::::::::::>>::UUUUUUUUUUMVZZVMkh<>xzddddddddddddddddddd<>>>>>>>>>>>,<::UUUUUUUUUUUUUUUUUUU",
"UUUUUUUUUUUUUUUxz,,UUUUUUUUUUfd,><,::UUUUUUUUUUU<,::UUUUUUUUUUjvbnbvjg,>xzd,UUUUUUUUUUUhh,>dd<>UUUUUUUUUUgg>:UUUUUUUUUUUUUUUUUUU",
"UUUUUUUUUUUUUUUxf,>UUUUUUUUUUfd,><,::UUUUUUUUUUU<,::UUUMMnnnnnkkbnbvjg,;>,<ghjlUUUUUUUUhh,>dd<>UUUUUUUUUUgg>:UUUUUUUUUUUUUUUUUUU",
"UUUUUUUUUUUUUUxzd>:UUUUUUUUUzfd,><>::UUUUUUUUUUU<,::MZZZZMnnnnnknbbvjg,;>,<gjlnnnnUUUUUhh<>ddg>>UUUUUUUUUgg,::UUUUUUUUUUUUUUUUUU",
"UUUUUUUUUUUUUUxzd>:555555544zfd,><>::44444444444<,MZZZbj<<<<<<<,Mnvvvg;ooo-;;:jbnnnn444hhg>ddg>>444444444g<,::44444444455UUUUUUU",
"UUUUUUUUUUUUUUxf,>4444444322ffd,>,::222222222222MZZZnj<<<<<<<<<,ZBvvvg;oooo-;;:<jnnnnn22hh<ddg>>2222222222<<>:222222223345UUUUUU",
"UUUUUUUUUUUUUxzd>:111111111$ff<>>$$$$$$$$$$$$$MZZZbj<<<<<<<<<<<,ZBvvvg;ooooo-;;:><jbnnnn$$$dhg>>$$$$$$$$$$<<,::$$$$$$$12355UUUUU",
"UUUUUUUUUUUUUxf<>11111111$$$dd,>>$$$$$$$$$$$MZZZnj<<<<<<<<<<<<<gZBvvvg:oooooo-;;:><<jnMMMM@gg<>>@@@@@@@@@@@<<>:@@#$$$112455UUUUU",
"UUUUUUUUUUUUUUU5555444432222dd,>>$$$$$$$SDDSZZbj<<<<<<<<<<<<<<<jZBvvv,>ooooooo-;;:>,<<jbBZSDDS>>OOOOOOOOOOOOOOOO+@$1234455UUUUUU",
"UUUUUUUUUUUUUUUUUUUU5555444443211111111ZZZZBBj<<<<<<<<<,>>>>>>>lZBbvv,,>--------;;:>,<<<jBDDSZZ................O+@$234555UUUUUUU",
"UUUUUUUUUUUUUUUUUUUUUUUUUUUUUUUUUUUUUUUBj<<<<<<<<<<<<>-o1$$$$$nnZBnvkh,,++++++Xo;;;:>,<<<<<<<jB                .@1234555UUUUUUUU",
"UUUUUUUUUUUUUUUUUUUUUUUUUUUUUUUUUUUUUUUkj<<<<<<<<<<>-o11$$#@@@nBZZBnvkh,OOOOOOOOXo;;:>,<<<<<<jk                .@1234455UUUUUUUU",
"UUUUUUUUUUUUUUUUUUUUUUUUUUUUUUUUUUUUUUU-;;;;;;;;;;oo++++++OOOOnk,,,,,,--OOOOOOOOOOXo;;;;;;;;;;-................O+@$123455UUUUUUU",
"UUUUUUUUUUUUUUUUUUUUUUUUUUUUUUUUUUUUUUUUoooooooooo############nk,,,,,,--OOOOOOOOOOOOooooooooooOOOOOOOOOOOOOOO++++#$123455UUUUUUU",
"UUUUUUUUUUUUUUUUUUUUUUUUUUUUUUUUUUUUUUUUUUUUUUUUUUUUUUUUUUUUUUng;;;;;;--@@@@@@@@@@@@@@@@@@@@@@@@@@@@@@@@@@@@#$$112234455UUUUUUUU",
"UUUUUUUUUUUUUUUUUUUUUUUUUUUUUUUUUUUUUUUUUUUUUUUUUUUUUUUUUUUUUUng;;;;;;--$$$$$$$$$$$$$$$$$$$$$$$$$$$$$$$$$$$$$12233345555UUUUUUUU"
};
